# xmcd CD database file
#
# Track frame offsets:
#	150
#	45204
#	80147
#	118215
#	138565
#	182575
#	206323
#	231225
#	252458
#
# Disc length: 3774 seconds
#
# Revision: 0
# Processed by: cddbd v1.5.2PL0 Copyright (c) Steve Scherf et al.
# Submitted via: CDex 1.70beta2
#
DISCID=7b0ebc09
DTITLE=David Kikoski - Consequences
DYEAR=2012
DGENRE=Jazz
TTITLE0=Blutain
TTITLE1=Russian Roulette
TTITLE2=Drama
TTITLE3=Placidity
TTITLE4=Mr. JJ
TTITLE5=(Still) A Glimmer of Hope
TTITLE6=Consequences Part I
TTITLE7=Consequences Part II
TTITLE8=Never Let Me Go
EXTD=YEAR: 2012
EXTT0=
EXTT1=
EXTT2=
EXTT3=
EXTT4=
EXTT5=
EXTT6=
EXTT7=
EXTT8=
PLAYORDER=
